<?xml version="1.0" encoding="UTF-8"?>
<svg id="Layer_1" data-name="Layer 1" xmlns="http://www.w3.org/2000/svg" viewBox="0 0 438.67 239.11">
  <defs>
    <style>
      .cls-1 {
        fill: #010101;
        fill-rule: evenodd;
      }
    </style>
  </defs>
  <path class="cls-1" d="m40.35,9.02c2.68,0,5.32.52,7.79,1.54l1.81.85,163.54,86.68c1.18.63,2.01,1.74,2.3,3.01l.11.98v33.86c0,1.34-.59,2.59-1.59,3.44l-.82.55L49.95,226.61c-2.37,1.25-4.95,2.03-7.6,2.29l-2,.1H9.92c-3.98,0-6.25-4.3-4.35-7.51l.56-.78,79.28-90.87c1.44-1.66,3.4-2.77,5.53-3.17l1.3-.16,87.91-4.57v-5.86l-87.91-4.57c-2.19-.11-4.27-.96-5.91-2.39l-.93-.93L6.13,17.3c-2.61-2.99-.84-7.52,2.83-8.2l.96-.09h30.43Z"/>
  <path class="cls-1" d="m428.51,9.02c4.3,0,6.61,5.05,3.79,8.29l-79.28,90.88c-1.73,1.98-4.2,3.19-6.83,3.32l-87.91,4.57v5.86l87.91,4.57c2.63.14,5.1,1.34,6.83,3.33l79.28,90.87c2.82,3.24.51,8.29-3.79,8.29h-30.43c-3.35,0-6.64-.82-9.6-2.39l-163.54-86.68c-1.48-.78-2.41-2.32-2.41-3.99v-33.86c0-1.67.92-3.2,2.41-3.99L388.48,11.4c2.96-1.57,6.25-2.39,9.6-2.39h30.43Z"/>
</svg>